<?xml version="1.0" encoding="utf-8"?>
<!-- Generator: Adobe Illustrator 23.0.1, SVG Export Plug-In . SVG Version: 6.00 Build 0)  -->
<svg version="1.1" id="Layer_1" xmlns="http://www.w3.org/2000/svg" xmlns:xlink="http://www.w3.org/1999/xlink" x="0px" y="0px"
	 viewBox="0 0 512 512" style="enable-background:new 0 0 512 512;" xml:space="preserve">
<style type="text/css">
	.st0{fill:#00B2F2;}
	.st1{fill:#241F20;}
	.st2{fill:#FFF100;}
	.st3{fill:#FF0090;}
	.st4{fill:#00AEEF;}
	.st5{fill:#FFFFFF;}
	.st6{fill:#00CCCC;}
</style>
<g>
	<path class="st0" d="M256,1L256,1C114.6,1,1,114.6,1,256h255"/>
</g>
<g>
	<path class="st1" d="M256,511.1L256,511.1c141.4,0,255-113.6,255-255H256"/>
</g>
<g>
	<path class="st2" d="M1,256L1,256c0,141.4,113.6,255,255,255V256"/>
</g>
<g>
	<path class="st3" d="M511,256.1L511,256.1C511,114.6,397.4,1,256,1v255"/>
</g>
<g>
	<path class="st4" d="M-570,131.4c-141.4,0-255,113.6-255,255c0,141.4,113.6,255,255,255c141.4,0,255-113.6,255-255
		C-315,244.9-428.6,131.4-570,131.4L-570,131.4z M-422.8,306.4l-185.5,192.4c-2.3,2.3-4.6,3.5-8.2,3.5c-3.4,0-6.9-1.2-8.1-3.5
		l-90.4-97.3l-2.3-2.3c-2.3-2.3-3.5-5.8-3.5-8.1c0-2.3,1.2-5.8,3.5-8.2l16.2-16.2c4.6-4.6,11.6-4.6,16.2,0l1.2,1.2l63.7,68.4
		c2.3,2.3,5.8,2.3,8.1,0l155.4-161.1h1.1c4.6-4.6,11.6-4.6,16.2,0l16.2,16.2C-418.2,294.8-418.2,301.8-422.8,306.4L-422.8,306.4z"/>
</g>
<g>
	<g>
		<path class="st5" d="M979.6,312.8V163c0-8.3,6.8-15.1,15.1-15.1h149.8c8.3,0,15.1,6.8,15.1,15.1v149.8c0,2.8-2.2,5-5,5H984.7
			C981.9,317.8,979.6,315.6,979.6,312.8L979.6,312.8z M1100.6,364.1c0,17.3-14,31.3-31.3,31.3s-31.3-14-31.3-31.3s14-31.3,31.3-31.3
			C1086.6,332.9,1100.6,346.9,1100.6,364.1L1100.6,364.1z M1084.9,364.1c0-8.6-7-15.6-15.6-15.6s-15.6,7-15.6,15.6s7,15.6,15.6,15.6
			C1077.9,379.8,1084.9,372.8,1084.9,364.1L1084.9,364.1z M1042.4,332.9h-70.1c-2.8,0-5,2.3-5,5v15.2c0,2.8,2.3,5,5,5h56.2
			C1029.9,348.1,1035,339.2,1042.4,332.9L1042.4,332.9z M1264.2,364.1c0,17.3-14,31.3-31.3,31.3s-31.3-14-31.3-31.3
			s14-31.3,31.3-31.3C1250.2,332.9,1264.2,346.9,1264.2,364.1L1264.2,364.1z M1248.5,364.1c0-8.6-7-15.6-15.6-15.6
			s-15.6,7-15.6,15.6s7,15.6,15.6,15.6C1241.5,379.8,1248.5,372.8,1248.5,364.1L1248.5,364.1z M1319.5,337.9v15.2c0,2.8-2.3,5-5,5
			h-40.7c-2.9-20-20.1-35.3-40.8-35.3c-20.8,0-37.9,15.4-40.8,35.3h-81.9c-1.5-10.1-6.5-18.9-13.9-25.3h77.7V189.1
			c0-5.6,4.5-10.1,10.1-10.1h47.4c13.4,0,25.8,6.6,33.3,17.7l30.6,45.3c4.5,6.6,6.9,14.5,6.9,22.5v68.3h12.2
			C1317.2,332.9,1319.5,335.1,1319.5,337.9L1319.5,337.9z M1268.5,243.2l-24.5-34.8c-0.9-1.3-2.5-2.1-4.1-2.1h-38.2
			c-2.8,0-5,2.2-5,5v34.8c0,2.8,2.2,5,5,5h62.6C1268.4,251.1,1270.8,246.6,1268.5,243.2L1268.5,243.2z"/>
	</g>
</g>
<g>
	<path class="st5" d="M1135.6,663.2c-29.2-97.7-132.5-153.5-230.3-124.3c-97.7,29.2-153.5,132.5-124.3,230.3
		c29.2,97.7,132.5,153.5,230.3,124.3C1109.1,864.3,1164.8,761,1135.6,663.2z M808.3,761.1c-24.7-82.7,22.4-170.1,105.1-194.8
		c82.7-24.7,170.1,22.4,194.8,105.1c24.7,82.7-22.4,170.1-105.1,194.8C920.5,891,833.1,843.8,808.3,761.1z"/>
	<path class="st5" d="M972.6,830.1v-16c24.5-6.3,42.7-28.7,42.7-55.1c0-28.7-26.7-42.8-50.3-55.3c-21.2-11.2-35.1-19.4-35.1-30.1
		c0-15.7,12.8-28.5,28.5-28.5c15.7,0,28.5,12.8,28.5,28.5c0,7.9,6.4,14.2,14.2,14.2c7.9,0,14.2-6.4,14.2-14.2
		c0-26.5-18.2-48.8-42.7-55.1v-16c0-7.9-6.4-14.2-14.2-14.2c-7.9,0-14.2,6.4-14.2,14.2v16c-24.5,6.3-42.7,28.7-42.7,55.1
		c0,28.7,26.7,42.8,50.3,55.3c21.2,11.2,35.1,19.4,35.1,30.1c0,15.7-12.8,28.5-28.5,28.5c-15.7,0-28.5-12.8-28.5-28.5
		c0-7.9-6.4-14.2-14.2-14.2s-14.2,6.4-14.2,14.2c0,26.5,18.2,48.8,42.7,55.1v16c0,7.9,6.4,14.2,14.2,14.2
		C966.2,844.3,972.6,838,972.6,830.1z"/>
	<polyline class="st5" points="800.8,647.4 1102.4,810.1 1115.9,785.1 814.3,622.3 	"/>
</g>
<path class="st5" d="M-202-210.4L-387.4-17.9c-2.3,2.3-4.6,3.5-8.2,3.5c-3.4,0-6.9-1.2-8.1-3.5l-90.4-97.3l-2.3-2.3
	c-2.3-2.3-3.5-5.8-3.5-8.1c0-2.3,1.2-5.8,3.5-8.2l16.2-16.2c4.6-4.6,11.6-4.6,16.2,0l1.2,1.2l63.7,68.4c2.3,2.3,5.8,2.3,8.1,0
	l155.4-161.1h1.1c4.6-4.6,11.6-4.6,16.2,0l16.2,16.2C-197.4-221.9-197.4-214.9-202-210.4L-202-210.4z"/>
<path class="st5" d="M-642.8,25.2c12.1,12.1,31.6,12.1,43.7,0l149.5-149.5c4.3-4.3,7.6-9.4,9.7-14.9c15,4.2,29.6,6.4,42.5,6.4
	c31.9-0.2,42.4-14.1,45.9-22.5c3.5-8.3,5.9-25.6-16.4-48.4l-0.7-0.7c-13.9-13.9-34-26.7-56.9-36.2c-4.2-1.7-8.4-3.3-12.5-4.8v-0.2
	c-0.2-18.3-15-33.1-33.4-33.4l-89.6-1.2c-11.9-0.2-23.3,4.5-31.6,12.9l-149.6,149.5c-12.1,12.1-12.1,31.6,0,43.7L-642.8,25.2z
	 M-527.6-226.7c10-10,26.2-10,36.2,0c5.9,5.9,8.3,14.1,7.2,21.8c9.8,6.9,21.5,13.4,34.1,18.6c4.5,1.8,8.8,3.5,12.9,4.9l-0.5-36
	c0.7,0.3,1.4,0.6,2.1,0.9c19.6,8.2,37.1,19.2,48.5,30.5l0.5,0.5c10.7,11,11.9,18,11,20.1c-2.8,6.7-32.9,12.6-78.7-6.4
	c-13.4-5.6-25.9-12.5-36.1-20.1c-0.3,0.4-0.7,0.8-1.1,1.2c-10,10-26.2,10-36.2,0C-537.6-200.5-537.6-216.7-527.6-226.7L-527.6-226.7
	z"/>
<g>
	<path class="st6" d="M-1830.6,922l-6.9,6.9V922h-33.8c-15.2,23.5-47.4,39.8-84.7,39.8c-37.3,0-69.4-16.3-84.7-39.8h-33.7v6.9
		l-6.9-6.9l-121.5,121.6l66.4,66.5l61.9-62V1298h237v-249.8l62,62l66.4-66.5L-1830.6,922z"/>
	<g>
		<g>
			<path class="st6" d="M-1837.4,922h-7v6.9c0,1.8,0.7,3.6,2,4.9c1.3,1.3,3.1,2,4.9,2s3.6-0.7,4.9-2c1.3-1.3,2-3.1,2-4.9V922
				c0-1.8-0.7-3.6-2-4.9c-1.3-1.3-3.1-2-4.9-2h-33.8c-2.4,0-4.6,1.2-5.9,3.2c-6.8,10.5-17.6,19.7-31.2,26.2
				c-13.6,6.5-30,10.4-47.7,10.4c-17.6,0-34-3.9-47.6-10.4c-13.6-6.5-24.5-15.7-31.3-26.3c-1.3-2-3.5-3.2-5.8-3.2h-33.7
				c-1.8,0-3.6,0.7-4.9,2c-1.3,1.3-2,3.1-2,4.9v6.9c0,1.8,0.7,3.6,2,4.9c1.3,1.3,3.1,2,4.9,2s3.6-0.7,4.9-2c1.3-1.3,2-3.1,2-4.9V922
				c0-2.8-1.7-5.3-4.2-6.4c-2.6-1.1-5.5-0.6-7.6,1.3l-128.4,121.6c-1.4,1.3-2.1,3.1-2.2,5c0,1.9,0.7,3.7,2,5l66.4,66.5
				c1.3,1.3,3.1,2,4.9,2s3.6-0.7,4.9-2l50-50.1v233c0,1.8,0.7,3.6,2,4.9c1.3,1.3,3.1,2,4.9,2h237c1.8,0,3.6-0.7,4.9-2
				c1.3-1.3,2-3.1,2-4.9v-233l50.1,50.1c1.3,1.3,3.1,2,4.9,2c1.9,0,3.6-0.7,4.9-2l66.4-66.5c1.3-1.3,2.1-3.1,2-5
				c0-1.9-0.8-3.7-2.2-5L-1832.6,917c-2-1.9-5-2.4-7.6-1.3c-2.6,1.1-4.2,3.6-4.2,6.4L-1837.4,922l-4.8,5.1l123.1,116.7l-56.4,56.5
				l-57-57c-2-2-5-2.6-7.6-1.5c-2.6,1.1-4.3,3.6-4.3,6.4V1291h-223.1v-242.8c0-2.8-1.7-5.4-4.3-6.4c-2.6-1.1-5.6-0.5-7.6,1.5l-57,57
				l-56.4-56.5l123.2-116.7l-4.8-5.1h-7v6.9c0,1.8,0.7,3.6,2,4.9c1.3,1.3,3.1,2,4.9,2s3.6-0.7,4.9-2c1.3-1.3,2-3.1,2-4.9V922h-7v7
				h33.7v-7l-5.8,3.8c8.5,13,21.4,23.7,36.9,31.2c15.6,7.5,34,11.8,53.6,11.8c19.7,0,38.1-4.3,53.7-11.8
				c15.6-7.5,28.5-18.2,36.9-31.2l-5.9-3.8v7h33.8L-1837.4,922l-7,0v6.9c0,1.8,0.7,3.6,2,4.9c1.3,1.3,3.1,2,4.9,2
				c1.8,0,3.6-0.7,4.9-2c1.3-1.3,2-3.1,2-4.9V922L-1837.4,922l-4.8,5.1L-1837.4,922z"/>
		</g>
	</g>
</g>
<g id="HLiYlx.tif">
	
		<image style="overflow:visible;" width="1200" height="627" id="Layer_0_1_" xlink:href="A4B3B513EF9FB4ED.png"  transform="matrix(1 0 0 1 -304.323 618)">
	</image>
</g>
</svg>
