<?xml version="1.0" encoding="utf-8"?>
<!-- Generator: Adobe Illustrator 23.0.1, SVG Export Plug-In . SVG Version: 6.00 Build 0)  -->
<svg version="1.1" id="Layer_1" xmlns="http://www.w3.org/2000/svg" xmlns:xlink="http://www.w3.org/1999/xlink" x="0px" y="0px"
	 viewBox="0 0 1118.7 435.7" style="enable-background:new 0 0 1118.7 435.7;" xml:space="preserve">
<style type="text/css">
	.st0{fill:#EE2754;}
	.st1{fill:#222222;}
	.st2{fill:none;}
	.st3{fill:#B21F78;}
	.st4{fill:#F2692B;}
	.st5{fill:url(#SVGID_1_);}
	.st6{fill:#000078;}
	.st7{fill:#00AEEF;}
	.st8{fill:url(#SVGID_2_);}
</style>
<polygon class="st0" points="1179.3,948.2 2163,766.7 1179.3,585.2 "/>
<g>
	<path class="st1" d="M1049.4,1086.3c-0.5,0.2-0.9,0.3-1.2,0.5c-10.8,6.1-26.6,4.1-36.5-5.5c-5-4.9-7.8-10.8-9.1-17.6
		c-0.6-3.6-0.9-7.2-0.9-10.9c0-12.9,0-25.8,0-38.8c0-0.6,0.1-1.1,0.1-1.7c5.8,0,11.6,0,17.5,0c0,0.6,0.1,1.3,0.1,2
		c0,13.2,0,26.2,0,39.4c0,2.8,0.2,5.7,1,8.4c0.5,1.6,1.1,3.2,1.9,4.5c2.2,3.8,5.6,5.8,9.9,6.2c1.7,0.2,3.3,0.2,4.9-0.1
		c4.6-0.7,7.9-3.4,9.9-7.6c1.5-3.2,2-6.6,2-10.1c0-8,0-16.2,0-24.3c0-5.5,0-11,0-16.5c0-0.6,0-1.3,0-2c5.9,0,11.7,0,17.6,0
		c0,0.6,0.1,1.2,0.1,1.7c0,27.1,0,54.3,0,81.4c0,4.7-0.5,9.5-1.7,14c-3.4,12.8-15.4,22.6-28.3,23.6c-15.4,1.3-30.1-8-34.9-22.6
		c-1.1-3.4-1.6-6.9-1.5-10.4c0-0.3,0.1-0.6,0.1-0.9c5.8,0,11.5,0,17.3,0c0.2,1.5,0.4,2.8,0.7,4.3c0.2,1.2,0.6,2.4,1.1,3.5
		c2,4.7,5.4,7.7,10.6,8.7c4.6,0.9,8.9,0.1,12.8-2.7c2.8-2,4.7-4.4,5.4-7.8c0.6-2.4,0.9-4.9,1.1-7.4c0.2-3.5,0.1-7.1,0.1-10.6
		C1049.4,1087,1049.4,1086.8,1049.4,1086.3z"/>
	<path class="st1" d="M707.5,1018.8c0-16.6,0-33.1,0-49.8c5.9,0,11.7,0,17.5,0c0,0.6,0.1,1,0.1,1.6c0,25.2,0,50.4,0,75.6
		c0,5.2-0.2,10.5-1.4,15.6c-2.2,8.7-7,15.8-14.3,21c-24.4,17.3-56.3,3.4-62.3-24c-4.9-22.2,11.1-43.5,31.4-47
		c9.6-1.7,18.4,0.4,26.5,5.8c0.6,0.5,1.3,0.9,2,1.3C707.1,1018.9,707.2,1018.8,707.5,1018.8z M663.8,1050.6c0.2,1.5,0.2,3.1,0.6,4.6
		c2.4,13.3,16.7,21.3,29.3,16.5c8.7-3.2,15.3-12.7,14.1-23.6c-1.5-13.7-13.4-21.8-26.3-19.2C671,1030.9,664,1039.8,663.8,1050.6z"/>
	<path class="st1" d="M355.4,1019.1c0.8-0.6,1.3-0.9,1.8-1.3c5.9-4.1,12.5-6.5,19.7-6.7c9.1-0.2,17.2,2.6,24.2,8.2
		c8.4,6.7,13.6,15.4,15.1,26.1c1.5,11.3-1.5,21.4-8.7,30.1c-8,9.8-18.6,15.1-31.3,14.7c-15.8-0.5-27.6-7.8-34.8-22.1
		c-2-4.1-2.9-8.5-3.2-13c-0.2-3.7-0.4-7.4-0.4-11.1c0-24.4,0-48.7,0-73.1c0-0.6,0-1.3,0-2c5.9,0,11.7,0,17.7,0
		C355.4,985.7,355.4,1002.2,355.4,1019.1z M354.5,1050.3c0.2,1.7,0.3,3.4,0.6,5c2,10.2,10.5,17.8,21.4,17.7
		c14-0.2,25-12.3,21.7-27.5c-2-9.5-9.5-15.9-19.3-17C365.7,1027,354.5,1037.1,354.5,1050.3z"/>
	<path class="st1" d="M550.4,1089.2c-6,0-11.7,0-17.6,0c0-2.2,0-4.3,0-6.9c-0.8,0.5-1.3,0.8-1.7,1.2c-4.4,3.1-9.1,5.3-14.4,6.2
		c-8.1,1.5-15.9,0.4-23.2-3.5c-12-6.4-19.3-16.4-21.4-29.7c-2.9-18.4,7.9-35.3,23.7-42.2c16.9-7.3,37.3-1.7,47.7,13.3
		c3.5,5.1,5.8,10.8,6.3,17.1c0.3,3.5,0.6,7.2,0.6,10.7c0.1,10.7,0,21.4,0,32.1C550.4,1088,550.4,1088.5,550.4,1089.2z M489.1,1050.9
		c0.2,1.5,0.2,3,0.6,4.4c1.8,8.4,6.6,14.2,14.8,16.7c8.3,2.5,15.9,1.1,22.3-4.9c5.9-5.6,7.6-12.6,6.2-20.5
		c-2.1-12.4-13.7-20.3-25.9-17.7C496.2,1031.1,489.2,1039.8,489.1,1050.9z"/>
	<path class="st1" d="M892.3,1089.2c-5.8,0-11.6,0-17.5,0c0-0.7-0.1-1.3-0.1-2c0-12.1,0.1-24.3-0.1-36.3c0-3.3-0.4-6.5-0.7-9.9
		c-0.2-1.2-0.6-2.3-0.9-3.5c-2.4-7.6-10.8-10.9-17.7-8.4c-5.3,1.9-8.3,5.6-9.3,11c-0.5,2.4-0.7,4.9-0.7,7.2
		c-0.1,11.5-0.1,23.1-0.1,34.7c0,2.4,0,4.6,0,6.9c-1.3,0.4-15.2,0.5-17.6,0.2c-0.1-0.5-0.1-0.9-0.1-1.4c0-14.3,0-28.7,0-43
		c0-3.2,0.3-6.5,1.1-9.6c2.3-9.4,10.6-21.4,26.2-23.6c9.5-1.3,18.1,0.6,25.7,6.6c5.3,4.3,9.1,9.5,10.7,16.2
		c0.8,3.4,1.1,6.9,1.1,10.3c0.1,14.4,0,28.9,0,43.3C892.4,1088.4,892.4,1088.7,892.3,1089.2z"/>
	<path class="st1" d="M632.1,1089.2c-5.9,0-11.7,0-17.6,0c0-0.7,0-1.4,0-2c0-12.1,0-24.1,0-36.2c0-3.7-0.2-7.4-0.9-11
		c-1.1-5-3.7-8.7-8.6-10.6c-6.7-2.7-16,0.6-18.4,8.3c-0.6,2-1,3.9-1.3,6c-0.2,2.7-0.3,5.4-0.3,8.2c0,11.7,0,23.6,0,35.3
		c0,0.7,0,1.3,0,2.1c-5.9,0-11.6,0-17.5,0c-0.1-0.5-0.2-1-0.2-1.5c0-14.1,0-28.2,0-42.3c0-3.3,0.2-6.6,0.9-9.9
		c3-12.8,13.4-22.3,26.4-24.1c10-1.3,19,0.9,26.6,7.6c6,5.2,9.7,11.7,10.2,19.8c0.2,2.9,0.4,5.9,0.4,8.8c0,13.2,0,26.4,0,39.6
		C632.1,1088,632.1,1088.5,632.1,1089.2z"/>
	<path class="st1" d="M778.6,968.9c0,5.9,0,11.5,0,17.3c-0.8,0-1.6-0.1-2.3,0c-2.2,0.2-4.4,0.3-6.5,0.8c-3.2,0.7-5.1,2.8-5.9,5.9
		c-0.3,1.3-0.6,2.6-0.6,3.9c-0.1,5,0,10.1,0,15.4c5,0.1,10,0,15.1,0.1c0.4,1.3,0.5,14.7,0.2,17.3c-2.5,0-5,0-7.6,0s-5,0-7.6,0
		c0,19.9,0,39.7,0,59.4c-1.3,0.4-15.1,0.5-17.5,0.2c0,0-0.1-0.1-0.2-0.1c0-0.1-0.1-0.1-0.1-0.2c0-0.2-0.1-0.3-0.1-0.5
		c0-19.5,0-38.9-0.1-58.4c0-0.1,0-0.1-0.1-0.4c-1.3,0-2.6-0.1-3.9-0.1c-1.3,0-2.6,0-3.9,0c-1.3,0-2.8,0-4,0
		c-0.4-1.3-0.6-14.2-0.2-17.3c3.9,0,8,0,12.2,0c0-0.8,0-1.4,0-2c0.1-5.1,0.1-10.2,0.4-15.4c0.2-2.8,0.8-5.7,1.5-8.4
		c1.8-6.8,6.4-11.3,12.5-14.4C765.6,969.2,772,969,778.6,968.9z"/>
	<path class="st1" d="M986.5,1072.2c0,5.7,0,11.3,0,17.1c-1.2,0-2.2,0-3.3,0c-4.3-0.1-8.4-0.6-12.5-2c-9.8-3.5-15.4-10.5-17.3-20.6
		c-0.7-3.7-0.8-7.5-0.8-11.2c0-8,0-15.9,0-23.9c0-0.6,0-1.3,0-2c-4.4,0-8.7,0-12.8,0c-0.4-1.3-0.5-15.1-0.1-17.3c2.1,0,4.3,0,6.4,0
		s4.2,0,6.5,0c0.2-1.8,0.1-3.5,0.1-5.3s0-3.6,0-5.4c0-1.7,0-3.5,0-5.3c0-1.8,0-3.6,0-5.4c0-1.7,0-3.5,0-5.4c5.8,0,11.6,0,17.5,0
		c0.2,4.4,0.1,8.9,0.1,13.3s0,8.8,0,13.5c5.4,0.2,10.7,0,16.2,0.1c0,5.8,0,11.3,0,17.2c-5.3,0.2-10.6,0-16,0.2
		c-0.1,0.6-0.1,1.1-0.1,1.6c0,8.4-0.1,16.7,0,25.1c0,2,0.2,4,0.6,5.9c1,5.8,3.8,8.5,9.7,9.4C982.5,1071.9,984.4,1072,986.5,1072.2z"
		/>
	<path class="st1" d="M448.3,1089.2c-5.9,0-11.7,0-17.5,0c-0.1-0.4-0.2-0.8-0.2-1.3c0-15.3,0-30.6,0-45.9c0-4.2,0.6-8.3,2-12.2
		c3.2-9.6,9.9-15.4,19.7-17.6c3.8-0.9,9.5-1,12.5-0.6c0.3,1.3,0.4,15.1,0.1,17c-1.3,0.2-2.5,0.3-3.8,0.6c-1.4,0.3-2.9,0.6-4.3,1
		c-3.5,1.1-5.9,3.5-7.1,7c-0.9,2.5-1.3,5.2-1.3,7.9c-0.1,3.6-0.1,7.2-0.1,11c0,10.3,0,20.7,0,31
		C448.3,1087.8,448.3,1088.5,448.3,1089.2z"/>
	<path class="st1" d="M929.4,1089.2c-5.8,0-11.4,0-17.2,0l-0.1-0.1c-0.1,0-0.1-0.1-0.1-0.2c-0.1-0.3-0.1-0.7-0.1-1
		c0-25.1,0-50.1,0.1-75.2c0-0.1,0.1-0.2,0.2-0.4c5.7,0,11.3,0,17.1,0l0.1,0.1c0,0,0.1,0.1,0.1,0.2c0,0.3,0.1,0.7,0.1,1
		c0,25.1,0,50,0,75C929.6,1088.9,929.5,1089,929.4,1089.2z"/>
	<path class="st1" d="M790.4,1012.3c5.8,0,11.5,0,17.2,0c0.4,1.3,0.6,74,0.2,76.8c-1.2,0.4-15.3,0.5-17.3,0.1
		C790.4,1063.6,790.4,1038,790.4,1012.3z"/>
	<path class="st1" d="M799.3,978.8c6.1,0.1,10.9,4.8,10.8,11c0,6.5-5.8,11.2-11.3,11c-5.9-0.2-10.6-5-10.6-11.1
		C788.2,983.3,793.8,978.4,799.3,978.8z"/>
	<path class="st1" d="M931.8,989.6c0.3,6.1-5.4,11.1-11,11.2c-6.1,0.1-11-5.2-11-11c0.1-6.1,4.8-11,10.8-11.1
		C927.1,978.7,931.7,983.3,931.8,989.6z"/>
</g>
<g>
	<path class="st2" d="M78.5,1080.2c0,35.2,28.5,63.8,63.8,63.8s63.8-28.5,63.8-63.8c0-16.2-6-30.9-15.9-42.2
		c-10.9-12.3-26.5-20.4-43.9-21.4c-1.3-0.1-2.6-0.1-3.9-0.1C107,1016.4,78.5,1045,78.5,1080.2z"/>
	<path class="st3" d="M46,1041.8c25.9-25.9,61.7-41.9,101.2-41.9c64.1,0,118.4,42.2,136.6,100.3c0.8-6.1,1.2-12.4,1.2-18.8
		c0-78.7-63.8-142.6-142.6-142.6c-39.9,0-76,16.4-101.9,42.9c6.2-10.7,18.5-28.1,40.3-43.2c0,0,0-17.6,0-36.1S65.6,863,40.5,863
		S0,884,0,901.1C0,949,0,1087.6,0,1090c0.6,11.1,2.6,21.9,5.7,32.2c1.7-11.3,4.6-22.3,8.8-32.6C20.7,1071,31.8,1054.6,46,1041.8z"/>
	<path class="st3" d="M14.5,1089.6c-4.2,10.3-7.2,21.3-8.8,32.6c0.9,3.2,2,6.3,3.2,9.5c-0.1-2.1-0.2-4.3-0.2-6.4
		C8.7,1112.7,10.7,1100.8,14.5,1089.6z"/>
	<path class="st4" d="M283.9,1100.2c-18.2-58.2-72.5-100.3-136.6-100.3c-39.6,0-75.3,16-101.2,41.9c19.7-17.6,45.7-28.3,74.2-28.3
		c8.9,0,17.5,1,25.8,3c17.5,1,33,9.1,43.9,21.4c25.5,20.5,41.9,51.9,41.9,87.2c0,39.1-20.1,73.4-50.5,93.4
		C235.5,1203.4,276.4,1157,283.9,1100.2z"/>
	
		<linearGradient id="SVGID_1_" gradientUnits="userSpaceOnUse" x1="120.25" y1="-871.5026" x2="120.25" y2="-1081.4856" gradientTransform="matrix(1 0 0 -1 0 142)">
		<stop  offset="0" style="stop-color:#F7EC18"/>
		<stop  offset="0.3556" style="stop-color:#F6C91D"/>
		<stop  offset="1" style="stop-color:#F6871F"/>
	</linearGradient>
	<path class="st5" d="M231.9,1125.2c0-35.3-16.4-66.7-41.9-87.2c9.9,11.3,15.9,26,15.9,42.2c0,35.2-28.5,63.8-63.8,63.8
		s-63.8-28.5-63.8-63.8s28.5-63.8,63.8-63.8c1.3,0,2.6,0.1,3.9,0.1c-8.3-2-16.9-3-25.8-3c-28.5,0-54.5,10.7-74.2,28.3
		c-14.3,12.8-25.3,29.2-31.6,47.8c-3.8,11.2-5.8,23.2-5.8,35.6c0,2.1,0.1,4.3,0.2,6.4c20.3,54,72.7,92.4,133.7,92.4
		c13.5,0,26.5-1.9,38.9-5.4C211.8,1198.7,231.9,1164.3,231.9,1125.2z"/>
</g>
<g>
	<polygon class="st6" points="470.3,1100 986.5,1099 509.4,1293.6 	"/>
	<polygon class="st7" points="484,1099.9 986.5,1098.9 522.1,1288.4 	"/>
</g>
<rect x="459.4" y="1143.5" transform="matrix(0.9803 -0.1973 0.1973 0.9803 -217.8037 115.3298)" class="st6" width="21" height="14.6"/>
<rect x="480" y="1245.2" transform="matrix(0.9803 -0.1973 0.1973 0.9803 -237.4631 121.397)" class="st6" width="21" height="14.6"/>
<g>
	<path class="st1" d="M1097,236.3c-0.5,0.3-1,0.4-1.3,0.5c-12.3,7-30.3,4.7-41.6-6.3c-5.7-5.6-8.9-12.3-10.3-20
		c-0.7-4.1-1.1-8.3-1.1-12.4c0-14.7,0-29.4,0-44.2c0-0.6,0.1-1.3,0.1-2c6.6,0,13.2,0,19.9,0c0,0.7,0.1,1.5,0.1,2.2
		c0,15,0,29.9,0,44.9c0,3.2,0.2,6.5,1.2,9.6c0.5,1.8,1.3,3.6,2.2,5.1c2.5,4.3,6.4,6.6,11.2,7.1c1.9,0.2,3.8,0.2,5.6-0.1
		c5.3-0.8,9-3.9,11.2-8.6c1.7-3.6,2.3-7.5,2.3-11.5c0-9.2,0-18.4,0-27.7c0-6.3,0-12.6,0-18.9c0-0.7,0-1.4,0-2.2c6.7,0,13.3,0,20,0
		c0,0.7,0.1,1.3,0.1,2c0,30.9,0,61.9,0,92.7c0,5.4-0.5,10.8-2,16c-3.9,14.6-17.6,25.8-32.2,26.9c-17.5,1.4-34.3-9.2-39.8-25.8
		c-1.3-3.9-1.8-7.8-1.7-11.9c0-0.4,0.1-0.6,0.1-1.1c6.6,0,13.1,0,19.7,0c0.3,1.7,0.4,3.2,0.8,4.8c0.3,1.3,0.7,2.8,1.3,4
		c2.2,5.4,6.2,8.8,12,9.9c5.3,1,10.1,0.1,14.6-3.1c3.1-2.2,5.4-5,6.2-8.9c0.6-2.8,1.1-5.6,1.3-8.4c0.2-4,0.1-8.1,0.1-12
		C1097.1,237.1,1097.1,236.9,1097,236.3z"/>
	<path class="st1" d="M707.5,159.4c0-18.9,0-37.7,0-56.7c6.7,0,13.3,0,19.9,0c0,0.6,0.1,1.2,0.1,1.8c0,28.7,0,57.4,0,86.1
		c0,5.9-0.2,11.9-1.6,17.8c-2.5,10-8,18-16.3,23.9c-27.8,19.8-64.1,3.9-70.9-27.4c-5.6-25.3,12.7-49.6,35.8-53.6
		c11-1.9,21,0.4,30.2,6.6c0.7,0.5,1.5,1,2.2,1.5C707.1,159.5,707.2,159.4,707.5,159.4z M657.8,195.6c0.2,1.7,0.3,3.5,0.6,5.2
		c2.8,15.2,19,24.2,33.4,18.9c9.9-3.7,17.4-14.5,16.1-26.9c-1.7-15.6-15.3-24.9-30-21.9C666,173.2,658,183.3,657.8,195.6z"/>
	<path class="st1" d="M306.4,159.8c0.9-0.6,1.5-1,2.1-1.4c6.7-4.7,14.2-7.5,22.4-7.6c10.3-0.3,19.6,3,27.6,9.3
		c9.5,7.6,15.4,17.6,17.1,29.7c1.7,12.8-1.7,24.3-9.9,34.3c-9.2,11.1-21.2,17.1-35.6,16.7c-18-0.5-31.4-8.9-39.7-25.1
		c-2.3-4.7-3.3-9.7-3.7-14.8c-0.3-4.2-0.4-8.4-0.4-12.7c0-27.7,0-55.5,0-83.2c0-0.7,0-1.4,0-2.2c6.7,0,13.3,0,20.1,0
		C306.4,121.7,306.4,140.5,306.4,159.8z M305.4,195.3c0.3,1.9,0.4,3.9,0.7,5.7c2.3,11.6,11.9,20.3,24.3,20.1
		c16-0.2,28.5-14,24.8-31.3c-2.3-10.9-10.8-18.1-22-19.4C318.2,168.7,305.3,180.2,305.4,195.3z"/>
	<path class="st1" d="M528.5,239.6c-6.8,0-13.4,0-20,0c0-2.5,0-4.9,0-7.8c-0.9,0.5-1.4,0.9-2,1.3c-5,3.5-10.4,6-16.4,7.1
		c-9.2,1.7-18.1,0.4-26.4-4c-13.6-7.3-22-18.7-24.3-33.8c-3.3-21,9-40.2,27-48c19.2-8.3,42.5-1.9,54.3,15.2c4,5.8,6.6,12.3,7.2,19.5
		c0.4,4,0.6,8.2,0.6,12.2c0.1,12.2,0,24.3,0,36.5C528.5,238.2,528.5,238.9,528.5,239.6z M458.8,195.9c0.2,1.7,0.3,3.4,0.6,5
		c2.1,9.5,7.5,16.2,16.9,19c9.4,2.9,18.1,1.3,25.4-5.6c6.7-6.4,8.6-14.4,7.1-23.3c-2.4-14.1-15.6-23.2-29.5-20.2
		C466.8,173.4,458.8,183.3,458.8,195.9z"/>
	<path class="st1" d="M918.1,239.7c-6.6,0-13.2,0-19.9,0c0-0.8-0.1-1.5-0.1-2.2c0-13.8,0.1-27.7-0.1-41.4c0-3.8-0.4-7.5-0.8-11.2
		c-0.2-1.3-0.6-2.6-1.1-4c-2.7-8.6-12.3-12.4-20.1-9.6c-6,2.2-9.4,6.4-10.6,12.5c-0.5,2.7-0.8,5.6-0.8,8.3
		c-0.1,13.1-0.1,26.3-0.1,39.5c0,2.7,0,5.3,0,7.9c-1.5,0.4-17.3,0.5-20,0.2c-0.1-0.5-0.1-1.1-0.1-1.6c0-16.3,0-32.7,0-49
		c0-3.7,0.4-7.4,1.3-11c2.6-10.7,12.1-24.4,29.8-26.8c10.8-1.5,20.7,0.7,29.3,7.5c6,4.8,10.4,10.8,12.2,18.5
		c0.9,3.9,1.3,7.8,1.3,11.8c0.1,16.4,0,33,0,49.4C918.2,238.7,918.2,239,918.1,239.7z"/>
	<path class="st1" d="M621.6,239.7c-6.7,0-13.3,0-20,0c0-0.8,0-1.6,0-2.3c0-13.7,0-27.5,0-41.2c0-4.2-0.2-8.4-1.1-12.6
		c-1.3-5.7-4.2-10-9.8-12.1c-7.6-3.1-18.2,0.6-20.9,9.4c-0.7,2.2-1.2,4.5-1.4,6.8c-0.3,3.1-0.4,6.2-0.4,9.3c0,13.4,0,26.8,0,40.2
		c0,0.8,0,1.5,0,2.4c-6.7,0-13.2,0-19.9,0c-0.1-0.5-0.2-1.2-0.2-1.7c0-16.1,0-32.1,0-48.2c0-3.8,0.3-7.5,1.1-11.2
		c3.4-14.5,15.3-25.4,30.1-27.5c11.4-1.5,21.6,1.1,30.3,8.7c6.8,5.9,11,13.3,11.7,22.5c0.2,3.3,0.4,6.7,0.4,10.1c0,15,0,30.1,0,45.1
		C621.6,238.2,621.6,238.9,621.6,239.7z"/>
	<path class="st1" d="M788.5,102.6c0,6.7,0,13.1,0,19.8c-0.9,0-1.8-0.1-2.6,0c-2.5,0.3-5,0.4-7.5,0.9c-3.6,0.8-5.8,3.1-6.7,6.7
		c-0.4,1.4-0.7,3-0.7,4.4c-0.1,5.7,0,11.5,0,17.6c5.7,0.1,11.4,0,17.1,0.1c0.4,1.4,0.5,16.7,0.2,19.7c-2.9,0-5.7,0-8.6,0
		c-2.9,0-5.7,0-8.7,0c0,22.7,0,45.3,0,67.7c-1.5,0.4-17.1,0.5-19.9,0.2c0,0-0.1-0.1-0.2-0.1c0-0.1-0.1-0.1-0.1-0.2
		c0-0.2-0.1-0.4-0.1-0.5c0-22.2,0-44.4-0.1-66.5c0-0.1,0-0.1-0.1-0.4c-1.4,0-3-0.1-4.5-0.1c-1.5,0-3,0-4.5,0c-1.5,0-3.1,0-4.6,0
		c-0.4-1.4-0.6-16.2-0.2-19.7c4.5,0,9.1,0,13.9,0c0-0.9,0-1.6,0-2.2c0.1-5.8,0.1-11.7,0.4-17.5c0.2-3.2,0.9-6.5,1.7-9.5
		c2.1-7.7,7.3-12.8,14.2-16.4C773.7,102.9,781,102.6,788.5,102.6z"/>
	<path class="st1" d="M1025.4,220.3c0,6.5,0,12.9,0,19.5c-1.3,0-2.5,0-3.8,0c-4.8-0.1-9.6-0.6-14.2-2.2c-11.1-4-17.6-11.9-19.7-23.4
		c-0.8-4.2-0.9-8.5-0.9-12.7c0-9.1,0-18.1,0-27.2c0-0.7,0-1.4,0-2.2c-5,0-9.9,0-14.6,0c-0.4-1.5-0.5-17.1-0.1-19.8
		c2.4,0,4.8,0,7.3,0s4.8,0,7.5,0c0.2-2.1,0.1-4,0.1-6c0-2.1,0-4.1,0-6.2c0-2,0-4,0-6c0-2.1,0-4.1,0-6.2c0-2,0-4,0-6.1
		c6.6,0,13.2,0,19.9,0c0.2,5,0.1,10.1,0.1,15.2s0,10.1,0,15.4c6.2,0.2,12.2,0,18.4,0.1c0,6.6,0,12.9,0,19.6c-6,0.3-12.1,0-18.2,0.2
		c-0.1,0.7-0.1,1.3-0.1,1.8c0,9.5-0.1,19,0,28.6c0,2.2,0.2,4.6,0.6,6.7c1.2,6.6,4.3,9.7,11,10.7C1020.9,219.9,1023,220,1025.4,220.3
		z"/>
	<path class="st1" d="M412.2,239.7c-6.7,0-13.3,0-19.9,0c-0.1-0.4-0.2-0.9-0.2-1.4c0-17.4,0-34.8,0-52.3c0-4.8,0.7-9.4,2.2-13.9
		c3.7-11,11.2-17.6,22.4-20c4.3-1,10.8-1.2,14.3-0.6c0.4,1.4,0.4,17.1,0.1,19.4c-1.4,0.2-2.9,0.4-4.3,0.6c-1.6,0.4-3.3,0.6-4.9,1.2
		c-4,1.3-6.7,4-8.1,8c-1,2.9-1.4,5.9-1.5,9c-0.1,4.1-0.1,8.3-0.1,12.5c0,11.8,0,23.6,0,35.4C412.2,238,412.2,238.8,412.2,239.7z"/>
	<path class="st1" d="M960.4,239.7c-6.6,0-13,0-19.6,0l-0.1-0.1c-0.1,0-0.1-0.1-0.1-0.2c-0.1-0.4-0.1-0.8-0.1-1.2
		c0-28.6,0-57.1,0.1-85.7c0-0.1,0.1-0.2,0.2-0.4c6.5,0,12.9,0,19.5,0l0.1,0.1c0,0,0.1,0.1,0.1,0.2c0,0.4,0.1,0.8,0.1,1.2
		c0,28.6,0,57,0,85.5C960.6,239.2,960.5,239.4,960.4,239.7z"/>
	<path class="st1" d="M802,152c6.6,0,13.1,0,19.6,0c0.4,1.4,0.6,84.3,0.2,87.4c-1.3,0.4-17.4,0.5-19.8,0.1
		C802,210.4,802,181.3,802,152z"/>
	<path class="st1" d="M812.1,113.8c7,0.1,12.4,5.5,12.3,12.6c0,7.4-6.6,12.7-12.9,12.5c-6.7-0.3-12.1-5.7-12.1-12.7
		C799.5,119,805.9,113.3,812.1,113.8z"/>
	<path class="st1" d="M963.1,126.1c0.4,7-6.2,12.7-12.5,12.7c-6.9,0.1-12.5-5.9-12.5-12.5c0.1-6.9,5.5-12.6,12.3-12.7
		C957.7,113.7,963,118.9,963.1,126.1z"/>
</g>
<g>
	<path class="st2" d="M67.8,217.9c0,28.8,23.3,52.2,52.2,52.2s52.2-23.3,52.2-52.2c0-13.2-4.9-25.3-13-34.5
		c-8.9-10.1-21.7-16.7-35.9-17.5c-1-0.1-2.1-0.1-3.2-0.1C91.1,165.7,67.8,189.1,67.8,217.9z"/>
	<path class="st3" d="M41.2,186.5c21.2-21.2,50.5-34.3,82.8-34.3c52.5,0,96.8,34.5,111.8,82.1c0.6-5,1-10.1,1-15.3
		c0-64.4-52.2-116.6-116.6-116.6c-32.6,0-62.1,13.4-83.4,35.1c5-8.8,15.1-23,32.9-35.4c0,0,0-14.4,0-29.5S57.2,40.2,36.7,40.2
		S3.6,57.4,3.6,71.4c0,39.2,0,152.6,0,154.5c0.5,9.1,2.1,17.9,4.6,26.3c1.4-9.3,3.8-18.2,7.2-26.7C20.6,210.3,29.6,196.9,41.2,186.5
		z"/>
	<path class="st3" d="M15.5,225.6C12,234,9.6,243,8.2,252.2c0.8,2.6,1.7,5.2,2.6,7.7c-0.1-1.7-0.1-3.5-0.1-5.2
		C10.7,244.5,12.4,234.7,15.5,225.6z"/>
	<path class="st4" d="M235.8,234.3c-14.9-47.6-59.3-82.1-111.8-82.1c-32.4,0-61.6,13.1-82.8,34.3c16.1-14.4,37.4-23.1,60.7-23.1
		c7.3,0,14.3,0.8,21.1,2.4c14.3,0.8,27,7.5,35.9,17.5c20.9,16.8,34.3,42.5,34.3,71.3c0,32-16.4,60.1-41.3,76.4
		C196.2,318.6,229.7,280.7,235.8,234.3z"/>
	
		<linearGradient id="SVGID_2_" gradientUnits="userSpaceOnUse" x1="101.9392" y1="191.3538" x2="101.9392" y2="363.1245" gradientTransform="matrix(1 0 0 1 0 -28)">
		<stop  offset="0" style="stop-color:#F7EC18"/>
		<stop  offset="0.3556" style="stop-color:#F6C91D"/>
		<stop  offset="1" style="stop-color:#F6871F"/>
	</linearGradient>
	<path class="st8" d="M193.3,254.7c0-28.9-13.4-54.6-34.3-71.3c8.1,9.2,13,21.3,13,34.5c0,28.8-23.3,52.2-52.2,52.2
		s-52.2-23.3-52.2-52.2s23.3-52.2,52.2-52.2c1.1,0,2.1,0.1,3.2,0.1c-6.8-1.6-13.9-2.4-21.1-2.4c-23.3,0-44.6,8.8-60.7,23.1
		c-11.7,10.4-20.7,23.9-25.8,39.1c-3.1,9.2-4.8,19-4.8,29.1c0,1.7,0.1,3.5,0.1,5.2c16.6,44.2,59.4,75.6,109.4,75.6
		c11,0,21.7-1.5,31.8-4.4C176.9,314.8,193.3,286.7,193.3,254.7z"/>
</g>
<g>
	<path class="st3" d="M456.9,329c-4.4,3.5-10.2,5.1-16.8,5.1c-9,0-17-4.7-22-9.4l7.2-10.6c4.5,4.7,11.4,7.8,16.2,7.8
		c4.7,0,8.3-2.3,8.3-6.4c0-4.2-4.6-5.8-7.3-6.8c-2.7-1-7.4-2.6-9.4-3.5c-1.5-0.7-4.7-1.9-7.4-4.5c-2.7-2.5-4.9-6.1-4.9-12
		c0-5.9,2.9-10.6,6.5-13.6c3.5-3,9.2-5,16.4-5s15.5,3.4,19.7,7.6l-6.2,10.2c-3.6-3.6-9.2-6.3-13.9-6.3c-4.7,0-8.1,1.8-8.1,5.6
		c0,3.8,3.5,5.2,6.3,6.3c2.7,1.1,7.3,2.7,9.3,3.5c1.7,0.6,5.9,2.3,8.6,5c2.6,2.6,4.9,6.4,4.9,12C464.2,320.1,461.4,325.5,456.9,329z
		"/>
	<path class="st3" d="M550.8,325.7c-3.1,3.2-9.7,8.5-22.4,8.5c-18.3,0-32.6-12.1-32.6-32c0-20.1,14.5-32,32.6-32
		c12.8,0,19.7,5.3,21.3,7l-4.5,12.1c-1.2-1.5-7.8-6.5-16-6.5c-10.5,0-18.6,7-18.6,19.2s8.5,19.1,18.6,19.1c7.7,0,13.3-3.1,16.7-6.6
		L550.8,325.7z"/>
	<path class="st3" d="M638.5,333.1h-14.6v-26H599v26h-14.6V271H599v24h24.9v-24h14.6V333.1z"/>
	<path class="st3" d="M706.7,334.2c-18.4,0-32.9-12-32.9-32s14.5-32.1,32.9-32.1s32.9,12.1,32.9,32.1S725.1,334.2,706.7,334.2z
		 M706.7,282.4c-10.3,0-18.2,7.5-18.2,19.3c0,11.9,7.8,19.4,18.2,19.4s18.2-7.6,18.2-19.4C724.8,290,717,282.4,706.7,282.4z"/>
	<path class="st3" d="M804.6,334.2c-18.4,0-32.9-12-32.9-32s14.5-32.1,32.9-32.1s32.9,12.1,32.9,32.1S823,334.2,804.6,334.2z
		 M804.6,282.4c-10.3,0-18.2,7.5-18.2,19.3c0,11.9,7.8,19.4,18.2,19.4s18.2-7.6,18.2-19.4C822.8,290,814.9,282.4,804.6,282.4z"/>
	<path class="st3" d="M908.7,333.1h-36V271h14.5v50h21.5V333.1z"/>
	<path class="st3" d="M976.9,329c-4.4,3.5-10.2,5.1-16.8,5.1c-9,0-17-4.7-22-9.4l7.2-10.6c4.5,4.7,11.4,7.8,16.2,7.8
		c4.7,0,8.3-2.3,8.3-6.4c0-4.2-4.6-5.8-7.3-6.8s-7.4-2.6-9.5-3.5c-1.5-0.7-4.7-1.9-7.4-4.5c-2.7-2.5-4.9-6.1-4.9-12
		c0-5.9,2.9-10.6,6.5-13.6c3.5-3,9.2-5,16.4-5c7.2,0,15.5,3.4,19.7,7.6l-6.2,10.2c-3.6-3.6-9.2-6.3-13.9-6.3s-8.1,1.8-8.1,5.6
		c0,3.8,3.5,5.2,6.3,6.3c2.7,1.1,7.3,2.7,9.3,3.5c1.7,0.6,5.8,2.3,8.6,5c2.6,2.6,4.9,6.4,4.9,12C984.2,320.1,981.4,325.5,976.9,329z
		"/>
</g>
</svg>
