<?xml version="1.0" encoding="utf-8"?>
<!-- Generator: Adobe Illustrator 23.0.1, SVG Export Plug-In . SVG Version: 6.00 Build 0)  -->
<svg version="1.1" id="Layer_1" xmlns="http://www.w3.org/2000/svg" xmlns:xlink="http://www.w3.org/1999/xlink" x="0px" y="0px"
	 viewBox="0 0 1400 470" style="enable-background:new 0 0 1400 470;" xml:space="preserve">
<style type="text/css">
	.st0{fill:#222222;}
	.st1{fill:none;}
	.st2{fill:#B21F78;}
	.st3{fill:#F2692B;}
	.st4{fill:url(#SVGID_1_);}
</style>
<g>
	<path class="st0" d="M1368.4,288.9c-0.6,0.3-1.1,0.4-1.5,0.6c-13.7,7.8-33.8,5.2-46.3-7c-6.3-6.2-9.9-13.7-11.5-22.3
		c-0.8-4.6-1.2-9.2-1.2-13.8c0-16.4,0-32.8,0-49.2c0-0.7,0.1-1.4,0.1-2.2c7.4,0,14.7,0,22.2,0c0,0.8,0.1,1.7,0.1,2.5
		c0,16.7,0,33.3,0,50c0,3.6,0.2,7.2,1.3,10.7c0.6,2,1.4,4,2.4,5.7c2.8,4.8,7.1,7.3,12.5,7.9c2.1,0.2,4.2,0.2,6.2-0.1
		c5.9-0.9,10-4.3,12.5-9.6c1.9-4,2.6-8.4,2.6-12.8c0-10.2,0-20.5,0-30.8c0-7,0-14,0-21c0-0.8,0-1.6,0-2.5c7.5,0,14.8,0,22.3,0
		c0,0.8,0.1,1.5,0.1,2.2c0,34.4,0,68.9,0,103.3c0,6-0.6,12-2.2,17.8c-4.3,16.3-19.6,28.7-35.9,30c-19.5,1.6-38.2-10.2-44.3-28.7
		c-1.4-4.3-2-8.7-1.9-13.2c0-0.4,0.1-0.7,0.1-1.2c7.3,0,14.6,0,21.9,0c0.3,1.9,0.5,3.6,0.9,5.4c0.3,1.5,0.8,3.1,1.4,4.5
		c2.5,6,6.9,9.8,13.4,11c5.9,1.1,11.3,0.1,16.3-3.4c3.5-2.5,6-5.6,6.9-9.9c0.7-3.1,1.2-6.2,1.4-9.4c0.2-4.5,0.1-9,0.1-13.4
		C1368.5,289.8,1368.5,289.5,1368.4,288.9z"/>
	<path class="st0" d="M934.6,203.2c0-21.1,0-42,0-63.2c7.5,0,14.8,0,22.2,0c0,0.7,0.1,1.3,0.1,2c0,32,0,63.9,0,95.9
		c0,6.6-0.2,13.3-1.8,19.8c-2.8,11.1-8.9,20-18.2,26.6c-31,22-71.4,4.3-79-30.5c-6.2-28.2,14.1-55.2,39.9-59.7
		c12.2-2.1,23.4,0.5,33.6,7.4c0.8,0.6,1.7,1.1,2.5,1.7C934.1,203.3,934.2,203.2,934.6,203.2z M879.2,243.5c0.2,1.9,0.3,3.9,0.7,5.8
		c3.1,16.9,21.2,27,37.2,21c11-4.1,19.4-16.1,17.9-30c-1.9-17.4-17-27.7-33.4-24.4C888.3,218.6,879.4,229.8,879.2,243.5z"/>
	<path class="st0" d="M487.8,203.6c1-0.7,1.7-1.1,2.3-1.6c7.5-5.2,15.8-8.3,25-8.5c11.5-0.3,21.8,3.3,30.7,10.4
		c10.6,8.5,17.2,19.6,19.1,33.1c1.9,14.3-1.9,27.1-11,38.2c-10.2,12.4-23.6,19.1-39.7,18.6c-20-0.6-35-9.9-44.2-28
		c-2.6-5.2-3.7-10.8-4.1-16.5c-0.3-4.7-0.5-9.4-0.5-14.1c0-30.9,0-61.8,0-92.7c0-0.8,0-1.6,0-2.5c7.5,0,14.8,0,22.4,0
		C487.8,161.2,487.8,182.2,487.8,203.6z M486.7,243.2c0.3,2.1,0.4,4.3,0.8,6.4c2.6,12.9,13.3,22.6,27.1,22.4
		c17.8-0.2,31.7-15.6,27.6-34.9c-2.6-12.1-12-20.2-24.5-21.6C500.9,213.6,486.6,226.4,486.7,243.2z"/>
	<path class="st0" d="M735.2,292.5c-7.6,0-14.9,0-22.3,0c0-2.8,0-5.5,0-8.7c-1,0.6-1.6,1-2.2,1.5c-5.6,3.9-11.6,6.7-18.3,7.9
		c-10.3,1.9-20.2,0.5-29.4-4.5c-15.2-8.1-24.5-20.8-27.1-37.7c-3.7-23.4,10-44.8,30.1-53.5c21.4-9.3,47.3-2.1,60.5,16.9
		c4.5,6.5,7.3,13.7,8,21.7c0.4,4.5,0.7,9.1,0.7,13.6c0.1,13.6,0,27.1,0,40.7C735.2,291,735.2,291.7,735.2,292.5z M657.5,243.9
		c0.2,1.9,0.3,3.8,0.7,5.6c2.3,10.6,8.4,18,18.8,21.2c10.5,3.2,20.2,1.4,28.3-6.2c7.5-7.1,9.6-16,7.9-26
		c-2.7-15.7-17.4-25.8-32.9-22.5C666.5,218.8,657.6,229.8,657.5,243.9z"/>
	<path class="st0" d="M1169.1,292.6c-7.4,0-14.7,0-22.2,0c0-0.9-0.1-1.7-0.1-2.5c0-15.4,0.1-30.8-0.1-46.1c0-4.2-0.5-8.3-0.9-12.5
		c-0.2-1.5-0.7-2.9-1.2-4.4c-3-9.6-13.7-13.8-22.4-10.7c-6.7,2.4-10.5,7.1-11.8,13.9c-0.6,3-0.9,6.2-0.9,9.2
		c-0.1,14.6-0.1,29.3-0.1,44c0,3,0,5.9,0,8.8c-1.7,0.5-19.3,0.6-22.3,0.2c-0.1-0.6-0.1-1.2-0.1-1.8c0-18.2,0-36.4,0-54.6
		c0-4.1,0.4-8.2,1.4-12.2c2.9-11.9,13.5-27.2,33.2-29.9c12-1.7,23,0.8,32.6,8.4c6.7,5.4,11.6,12,13.6,20.6c1,4.3,1.4,8.7,1.4,13.1
		c0.1,18.3,0,36.7,0,55C1169.2,291.5,1169.2,291.9,1169.1,292.6z"/>
	<path class="st0" d="M838.9,292.6c-7.5,0-14.8,0-22.3,0c0-0.9,0-1.8,0-2.6c0-15.3,0-30.6,0-45.9c0-4.7-0.2-9.4-1.2-14
		c-1.4-6.3-4.7-11.1-10.9-13.5c-8.5-3.4-20.3,0.7-23.3,10.5c-0.8,2.5-1.3,5-1.6,7.6c-0.3,3.4-0.4,6.9-0.4,10.4c0,14.9,0,29.9,0,44.8
		c0,0.9,0,1.7,0,2.7c-7.5,0-14.7,0-22.2,0c-0.1-0.6-0.2-1.3-0.2-1.9c0-17.9,0-35.8,0-53.7c0-4.2,0.3-8.4,1.2-12.5
		c3.8-16.2,17-28.3,33.5-30.6c12.7-1.7,24.1,1.2,33.8,9.7c7.6,6.6,12.3,14.8,13,25.1c0.2,3.7,0.5,7.5,0.5,11.2c0,16.7,0,33.5,0,50.2
		C838.9,291,838.9,291.7,838.9,292.6z"/>
	<path class="st0" d="M1024.8,139.9c0,7.5,0,14.6,0,22c-1,0-2-0.1-2.9,0c-2.8,0.3-5.6,0.4-8.3,1c-4,0.9-6.5,3.5-7.5,7.5
		c-0.4,1.6-0.8,3.3-0.8,4.9c-0.1,6.4,0,12.8,0,19.6c6.3,0.1,12.7,0,19.1,0.1c0.5,1.6,0.6,18.6,0.2,21.9c-3.2,0-6.4,0-9.6,0
		c-3.2,0-6.3,0-9.7,0c0,25.3,0,50.4,0,75.4c-1.7,0.5-19.1,0.6-22.2,0.2c0,0-0.1-0.1-0.2-0.1c0-0.1-0.1-0.1-0.1-0.2
		c0-0.2-0.1-0.4-0.1-0.6c0-24.7,0-49.4-0.1-74.1c0-0.1,0-0.1-0.1-0.5c-1.6,0-3.3-0.1-5-0.1c-1.7,0-3.3,0-5,0c-1.7,0-3.5,0-5.1,0
		c-0.5-1.6-0.7-18-0.2-21.9c5,0,10.1,0,15.5,0c0-1,0-1.8,0-2.5c0.1-6.5,0.1-13,0.5-19.5c0.2-3.6,1-7.2,1.9-10.6
		c2.3-8.6,8.1-14.3,15.8-18.3C1008.3,140.3,1016.4,140,1024.8,139.9z"/>
	<path class="st0" d="M1288.6,271c0,7.2,0,14.4,0,21.7c-1.5,0-2.8,0-4.2,0c-5.4-0.1-10.7-0.7-15.8-2.5
		c-12.4-4.5-19.6-13.3-21.9-26.1c-0.9-4.7-1-9.5-1-14.2c0-10.1,0-20.2,0-30.3c0-0.8,0-1.6,0-2.5c-5.6,0-11,0-16.3,0
		c-0.5-1.7-0.6-19.1-0.1-22c2.7,0,5.4,0,8.1,0c2.7,0,5.3,0,8.3,0c0.2-2.3,0.1-4.5,0.1-6.7c0-2.3,0-4.6,0-6.9c0-2.2,0-4.5,0-6.7
		c0-2.3,0-4.6,0-6.9c0-2.2,0-4.5,0-6.8c7.4,0,14.7,0,22.2,0c0.2,5.6,0.1,11.3,0.1,16.9c0,5.6,0,11.2,0,17.1c6.9,0.2,13.6,0,20.5,0.1
		c0,7.3,0,14.4,0,21.8c-6.7,0.3-13.5,0-20.3,0.2c-0.1,0.8-0.1,1.4-0.1,2c0,10.6-0.1,21.2,0,31.8c0,2.5,0.2,5.1,0.7,7.5
		c1.3,7.4,4.8,10.8,12.3,11.9C1283.6,270.6,1286,270.7,1288.6,271z"/>
	<path class="st0" d="M605.7,292.6c-7.5,0-14.8,0-22.2,0c-0.1-0.5-0.2-1-0.2-1.6c0-19.4,0-38.8,0-58.2c0-5.3,0.8-10.5,2.5-15.5
		c4.1-12.2,12.5-19.6,25-22.3c4.8-1.1,12-1.3,15.9-0.7c0.4,1.6,0.5,19.1,0.1,21.6c-1.6,0.2-3.2,0.4-4.8,0.7
		c-1.8,0.4-3.7,0.7-5.5,1.3c-4.5,1.4-7.5,4.5-9,8.9c-1.1,3.2-1.6,6.6-1.7,10c-0.1,4.6-0.1,9.2-0.1,13.9c0,13.1,0,26.3,0,39.4
		C605.7,290.8,605.7,291.6,605.7,292.6z"/>
	<path class="st0" d="M1216.2,292.6c-7.3,0-14.5,0-21.8,0c0,0-0.1-0.1-0.1-0.1c-0.1,0-0.1-0.1-0.1-0.2c-0.1-0.4-0.1-0.9-0.1-1.3
		c0-31.8,0-63.6,0.1-95.4c0-0.1,0.1-0.2,0.2-0.5c7.2,0,14.4,0,21.7,0c0,0,0.1,0.1,0.1,0.1s0.1,0.1,0.1,0.2c0,0.4,0.1,0.9,0.1,1.3
		c0,31.8,0,63.5,0,95.2C1216.4,292.1,1216.3,292.3,1216.2,292.6z"/>
	<path class="st0" d="M1039.8,195c7.4,0,14.6,0,21.8,0c0.5,1.6,0.7,93.9,0.2,97.4c-1.5,0.5-19.4,0.6-22,0.1
		C1039.8,260,1039.8,227.6,1039.8,195z"/>
	<path class="st0" d="M1051.1,152.4c7.8,0.1,13.8,6.1,13.7,14c0,8.2-7.4,14.2-14.4,13.9c-7.5-0.3-13.5-6.4-13.5-14.1
		C1037,158.2,1044.1,151.9,1051.1,152.4z"/>
	<path class="st0" d="M1219.2,166.1c0.4,7.8-6.9,14.1-13.9,14.2c-7.7,0.1-13.9-6.6-13.9-13.9c0.1-7.7,6.1-14,13.7-14.1
		C1213.2,152.3,1219.1,158.1,1219.2,166.1z"/>
</g>
<g>
	<path class="st1" d="M106.4,281.1c0,44.7,36.2,80.9,80.9,80.9s80.9-36.2,80.9-80.9c0-20.5-7.6-39.2-20.2-53.5
		c-13.8-15.6-33.6-25.9-55.7-27.2c-1.6-0.1-3.3-0.1-4.9-0.1C142.6,200.2,106.4,236.4,106.4,281.1z"/>
	<path class="st2" d="M65.2,232.4c32.9-32.9,78.3-53.2,128.4-53.2c81.4,0,150.2,53.5,173.4,127.3c1-7.8,1.5-15.7,1.5-23.8
		c0-99.9-81-180.9-180.9-180.9c-50.6,0-96.4,20.8-129.3,54.4c7.8-13.7,23.4-35.7,51-54.9c0,0,0-22.3,0-45.8s-19.3-50-51.1-50
		S6.8,32.2,6.8,53.8c0,60.8,0,236.7,0,239.7c0.8,14.1,3.3,27.8,7.2,40.8c2.1-14.4,5.9-28.3,11.2-41.4
		C33.1,269.4,47.1,248.6,65.2,232.4z"/>
	<path class="st2" d="M25.2,293c-5.3,13.1-9.1,27-11.2,41.4c1.2,4,2.6,8,4,12c-0.1-2.7-0.2-5.4-0.2-8.1
		C17.8,322.4,20.4,307.2,25.2,293z"/>
	<path class="st3" d="M367,306.5c-23.1-73.8-92-127.3-173.4-127.3c-50.2,0-95.6,20.3-128.4,53.2c25-22.3,58-35.9,94.2-35.9
		c11.3,0,22.2,1.3,32.8,3.8c22.2,1.3,41.9,11.6,55.7,27.2c32.4,26,53.2,65.9,53.2,110.6c0,49.6-25.5,93.2-64.1,118.5
		C305.6,437.4,357.6,378.6,367,306.5z"/>
	
		<linearGradient id="SVGID_1_" gradientUnits="userSpaceOnUse" x1="159.44" y1="275.7567" x2="159.44" y2="9.2952" gradientTransform="matrix(1 0 0 -1 0 472)">
		<stop  offset="0" style="stop-color:#F7EC18"/>
		<stop  offset="0.3556" style="stop-color:#F6C91D"/>
		<stop  offset="1" style="stop-color:#F6871F"/>
	</linearGradient>
	<path class="st4" d="M301.1,338.2c0-44.8-20.8-84.7-53.2-110.6c12.6,14.3,20.2,33,20.2,53.5c0,44.7-36.2,80.9-80.9,80.9
		s-80.9-36.2-80.9-80.9s36.2-80.9,80.9-80.9c1.7,0,3.3,0.1,4.9,0.1c-10.5-2.5-21.5-3.8-32.8-3.8c-36.2,0-69.2,13.6-94.2,35.9
		c-18.2,16.2-32.1,37-40.1,60.6c-4.8,14.2-7.4,29.4-7.4,45.2c0,2.7,0.1,5.4,0.2,8.1c25.8,68.5,92.2,117.2,169.7,117.2
		c17.1,0,33.6-2.4,49.3-6.8C275.6,431.5,301.1,387.8,301.1,338.2z"/>
</g>
</svg>
