<?xml version="1.0" encoding="iso-8859-1"?>
<!-- Generator: Adobe Illustrator 23.0.1, SVG Export Plug-In . SVG Version: 6.00 Build 0)  -->
<svg version="1.1" id="Layer_1" xmlns="http://www.w3.org/2000/svg" xmlns:xlink="http://www.w3.org/1999/xlink" x="0px" y="0px"
	 viewBox="0 0 512 512" style="enable-background:new 0 0 512 512;" xml:space="preserve">
<g>
	<path style="fill:#00D163;" d="M256.036,1C114.594,1,1,114.594,1,256.036C1,397.406,114.594,511,256.036,511
		C397.406,511,511,397.406,511,256.036C511,114.594,397.406,1,256.036,1L256.036,1z"/>
</g>
<g>
	<path style="fill:#00AEEF;" d="M-569.996,131.356c-141.443,0-255.036,113.594-255.036,255.037
		c0,141.37,113.594,254.964,255.036,254.964c141.37,0,254.964-113.594,254.964-254.964
		C-315.032,244.95-428.626,131.356-569.996,131.356L-569.996,131.356z M-422.787,306.355l-185.474,192.429
		c-2.319,2.332-4.637,3.521-8.157,3.521c-3.449,0-6.897-1.188-8.086-3.521l-90.382-97.338l-2.333-2.332
		c-2.318-2.319-3.506-5.825-3.506-8.085c0-2.318,1.188-5.824,3.506-8.158l16.199-16.242c4.637-4.579,11.591-4.579,16.242,0
		l1.188,1.188l63.723,68.374c2.318,2.318,5.781,2.318,8.099,0l155.352-161.075h1.145c4.636-4.637,11.591-4.637,16.242,0
		l16.242,16.184C-418.208,294.807-418.208,301.776-422.787,306.355L-422.787,306.355z"/>
</g>
<g>
	<g>
		<path style="fill:#FFFFFF;" d="M979.636,312.798V162.956c0-8.328,6.75-15.077,15.077-15.077h149.765
			c8.325,0,15.075,6.75,15.075,15.077v149.842c0,2.775-2.249,5.026-5.026,5.026H984.662
			C981.884,317.824,979.636,315.573,979.636,312.798L979.636,312.798z M1100.574,364.129c0,17.27-14,31.27-31.27,31.27
			s-31.27-14-31.27-31.27s14-31.27,31.27-31.27C1086.574,332.86,1100.574,346.86,1100.574,364.129L1100.574,364.129z
			 M1084.941,364.129c0-8.635-7.001-15.634-15.636-15.634s-15.636,6.999-15.636,15.634s7.001,15.636,15.636,15.636
			C1077.94,379.765,1084.941,372.764,1084.941,364.129L1084.941,364.129z M1042.373,332.86h-70.069
			c-2.775,0-5.026,2.251-5.026,5.026v15.247c0,2.775,2.251,5.025,5.026,5.025h56.164
			C1029.933,348.096,1035.013,339.21,1042.373,332.86L1042.373,332.86z M1264.182,364.129c0,17.27-14,31.27-31.27,31.27
			s-31.27-14-31.27-31.27s14-31.27,31.27-31.27C1250.182,332.86,1264.182,346.86,1264.182,364.129L1264.182,364.129z
			 M1248.549,364.129c0-8.635-7.001-15.634-15.636-15.634s-15.636,6.999-15.636,15.634s7.001,15.636,15.636,15.636
			C1241.547,379.765,1248.549,372.764,1248.549,364.129L1248.549,364.129z M1319.463,337.886v15.247
			c0,2.775-2.251,5.025-5.026,5.025h-40.687c-2.91-19.958-20.088-35.347-40.835-35.347c-20.754,0-37.931,15.391-40.842,35.347
			h-81.929c-1.468-10.06-6.545-18.948-13.907-25.298h77.685V189.114c0-5.55,4.501-10.052,10.051-10.052h47.443
			c13.359,0,25.846,6.636,33.321,17.708l30.586,45.3c4.486,6.645,6.883,14.48,6.883,22.497v68.292h12.231
			C1317.212,332.86,1319.463,335.11,1319.463,337.886L1319.463,337.886z M1268.481,243.232l-24.458-34.755
			c-0.942-1.337-2.474-2.132-4.11-2.132h-38.15c-2.775,0-5.026,2.248-5.026,5.026v34.755c0,2.775,2.248,5.025,5.026,5.025h62.609
			C1268.443,251.148,1270.824,246.561,1268.481,243.232L1268.481,243.232z"/>
	</g>
</g>
<g>
	<path style="fill:#FFFFFF;" d="M1008.37,27.904v-40.463c0-15.369-12.357-27.726-27.722-27.726l-19.151-3.009l-32.82-49.421
		c-0.463-0.388-0.852-1.316-1.312-1.701c-5.098-6.795-13.209-11.508-22.628-11.508h-62.241v-17.221
		c0-8.725-6.486-15.829-14.516-15.829H660.095c-8.031,0-14.517,7.103-14.517,15.829v186.88c0,8.959,7.259,15.753,15.754,15.753
		h22.628c5.093,17.914,21.311,30.655,40.926,30.655s35.832-13.205,40.927-30.655h139.389c5.093,17.914,21.311,30.655,40.926,30.655
		c19.615,0,35.832-13.205,40.931-30.655h19.611c8.959,0,15.753-7.258,15.753-15.753v-20
		C1022.422,35.551,1016.016,28.756,1008.37,27.904L1008.37,27.904z M724.886,88.833c-11.968,0-21.316-9.808-21.316-21.312
		c0-11.508,9.808-21.316,21.316-21.316c11.968,0,21.312,9.808,21.312,21.316C746.197,79.026,736.854,88.833,724.886,88.833
		L724.886,88.833z M871.683-41.672c-1.078,0-2.006-0.849-2.006-2.01v-39.151c0-1.082,0.849-2.01,2.006-2.01h33.826
		c0.694,0,1.313,0.309,1.621,0.852l26.33,39.151c0.852,1.312-0.075,3.088-1.621,3.088h-60.157V-41.672z M946.127,88.833
		c-11.968,0-21.312-9.808-21.312-21.312c0-11.508,9.807-21.316,21.312-21.316c11.972,0,21.315,9.808,21.315,21.316
		C967.442,79.026,957.635,88.833,946.127,88.833L946.127,88.833z"/>
</g>
<g>
	<path style="fill:#FFFFFF;" d="M433.269,202.994C404.041,105.246,300.74,49.503,202.994,78.731
		C105.247,107.958,49.503,211.258,78.731,309.006c29.228,97.747,132.529,153.491,230.275,124.263
		C406.751,404.042,462.497,300.741,433.269,202.994z M106.003,300.851c-24.731-82.708,22.437-170.118,105.146-194.848
		c82.709-24.731,170.117,22.438,194.848,105.146c24.731,82.709-22.437,170.117-105.146,194.848
		C218.143,430.728,130.734,383.56,106.003,300.851z"/>
	<path style="fill:#FFFFFF;" d="M270.232,369.861v-16.034c24.528-6.337,42.698-28.652,42.698-55.129
		c0-28.699-26.708-42.818-50.274-55.272c-21.215-11.215-35.122-19.369-35.122-30.123c0-15.695,12.77-28.465,28.465-28.465
		c15.696,0,28.465,12.77,28.465,28.465c0,7.859,6.371,14.233,14.233,14.233c7.861,0,14.233-6.373,14.233-14.233
		c0-26.478-18.17-48.793-42.698-55.129v-16.035c0-7.859-6.371-14.233-14.233-14.233c-7.861,0-14.233,6.373-14.233,14.233v16.035
		c-24.527,6.336-42.698,28.65-42.698,55.129c0,28.71,26.715,42.83,50.285,55.289c21.209,11.211,35.11,19.363,35.11,30.107
		c0,15.696-12.769,28.465-28.465,28.465c-15.695,0-28.465-12.769-28.465-28.465c0-7.86-6.372-14.233-14.233-14.233
		s-14.233,6.373-14.233,14.233c0,26.479,18.171,48.793,42.698,55.129v16.034c0,7.86,6.372,14.233,14.233,14.233
		C263.861,384.094,270.232,377.721,270.232,369.861z"/>
	<polyline style="fill:#FFFFFF;" points="98.445,187.151 400.037,349.899 413.555,324.849 111.963,162.101 	"/>
</g>
<path style="fill:#FFFFFF;" d="M-201.973-210.365l-185.474,192.43c-2.319,2.332-4.637,3.521-8.157,3.521
	c-3.449,0-6.897-1.188-8.086-3.521l-90.382-97.338l-2.333-2.332c-2.318-2.319-3.506-5.825-3.506-8.085
	c0-2.318,1.188-5.824,3.506-8.158l16.199-16.242c4.637-4.579,11.591-4.579,16.242,0l1.188,1.188l63.723,68.374
	c2.318,2.318,5.781,2.318,8.099,0l155.352-161.075h1.145c4.636-4.637,11.591-4.637,16.242,0l16.242,16.184
	C-197.394-221.912-197.394-214.943-201.973-210.365L-201.973-210.365z"/>
<path style="fill:#FFFFFF;" d="M-642.806,25.162c12.057,12.051,31.618,12.051,43.67,0l149.503-149.503
	c4.293-4.293,7.595-9.408,9.739-14.858c15.026,4.209,29.638,6.438,42.517,6.357c31.864-0.166,42.428-14.116,45.894-22.456
	c3.471-8.255,5.946-25.588-16.426-48.374l-0.741-0.742c-13.871-13.87-34.012-26.664-56.879-36.161
	c-4.212-1.733-8.421-3.301-12.549-4.785v-0.25c-0.25-18.324-15.022-33.101-33.351-33.351l-89.569-1.237
	c-11.886-0.165-23.277,4.458-31.617,12.878l-149.578,149.501c-12.057,12.052-12.057,31.618,0,43.67L-642.806,25.162z
	 M-527.56-226.704c9.988-9.989,26.168-9.989,36.156,0c5.942,5.945,8.336,14.115,7.183,21.795
	c9.823,6.932,21.545,13.374,34.093,18.574c4.458,1.814,8.75,3.466,12.878,4.868l-0.495-35.99c0.742,0.33,1.402,0.576,2.144,0.906
	c19.566,8.175,37.148,19.235,48.459,30.546l0.495,0.495c10.731,10.976,11.887,17.994,10.98,20.143
	c-2.81,6.687-32.94,12.628-78.673-6.441c-13.37-5.611-25.918-12.548-36.072-20.058c-0.331,0.412-0.746,0.822-1.076,1.238
	c-9.989,9.988-26.169,9.988-36.156,0C-537.553-200.536-537.553-216.716-527.56-226.704L-527.56-226.704z"/>
<g>
	<path style="fill:#00CCCC;" d="M-1830.579,922.027l-6.866,6.862v-6.862h-33.835c-15.196,23.546-47.357,39.822-84.722,39.822
		c-37.282,0-69.441-16.276-84.726-39.824h-33.744v6.862l-6.883-6.862l-121.544,121.612l66.448,66.499l61.911-61.974v249.813h237.026
		v-249.81l61.974,61.974l66.435-66.499L-1830.579,922.027z"/>
	<g>
		<g>
			<path style="fill:#00CCCC;" d="M-1837.444,922.024h-6.971v6.866c0,1.833,0.74,3.63,2.04,4.933c1.303,1.299,3.098,2.04,4.933,2.04
				s3.63-0.74,4.933-2.044c1.299-1.299,2.04-3.093,2.04-4.929v-6.866c0-1.833-0.74-3.63-2.04-4.933
				c-1.303-1.299-3.098-2.04-4.933-2.04h-33.836c-2.379,0-4.572,1.192-5.861,3.192c-6.768,10.505-17.579,19.702-31.204,26.238
				c-13.613,6.538-29.986,10.398-47.656,10.398c-17.626,0-33.98-3.856-47.596-10.398c-13.624-6.534-24.468-15.741-31.28-26.255
				c-1.281-1.975-3.495-3.175-5.848-3.175h-33.748c-1.833,0-3.63,0.74-4.933,2.04c-1.299,1.303-2.04,3.098-2.04,4.933v6.866
				c0,1.833,0.74,3.63,2.04,4.933c1.303,1.299,3.098,2.04,4.933,2.04s3.63-0.74,4.933-2.044c1.299-1.299,2.04-3.093,2.04-4.929
				v-6.866c0-2.776-1.664-5.309-4.213-6.406c-2.554-1.098-5.539-0.566-7.556,1.34l-128.429,121.616
				c-1.371,1.303-2.149,3.077-2.176,4.966c-0.026,1.89,0.703,3.689,2.04,5.027l66.448,66.499c1.315,1.319,3.069,2.044,4.933,2.044
				s3.618-0.723,4.933-2.044l50.006-50.056v232.966c0,1.833,0.74,3.63,2.04,4.933c1.303,1.299,3.098,2.04,4.933,2.04h237.026
				c1.833,0,3.63-0.74,4.933-2.04c1.299-1.303,2.04-3.098,2.04-4.933v-232.978l50.069,50.073c1.319,1.315,3.073,2.04,4.933,2.04
				c1.864,0,3.618-0.723,4.933-2.044l66.435-66.499c1.336-1.336,2.063-3.137,2.04-5.023c-0.026-1.89-0.804-3.669-2.176-4.966
				l-128.34-121.616c-2.017-1.91-5.002-2.443-7.552-1.346c-2.554,1.098-4.218,3.63-4.218,6.406L-1837.444,922.024l-4.797,5.061
				l123.144,116.691l-56.445,56.498l-57.041-57.041c-1.992-1.992-4.993-2.588-7.598-1.511c-2.605,1.08-4.303,3.622-4.303,6.445
				v242.84h-223.084v-242.843c0-2.822-1.699-5.363-4.303-6.445c-2.609-1.077-5.61-0.481-7.602,1.516l-56.977,57.037l-56.45-56.498
				l123.226-116.687l-4.797-5.065h-6.971v6.866c0,1.833,0.74,3.63,2.04,4.933c1.303,1.299,3.098,2.04,4.933,2.04
				s3.63-0.74,4.933-2.044c1.299-1.299,2.04-3.094,2.04-4.929v-6.866h-6.971v6.971h33.746v-6.971l-5.848,3.796
				c8.47,13.037,21.351,23.742,36.946,31.234c15.601,7.487,33.972,11.77,53.628,11.77c19.696,0,38.083-4.279,53.691-11.77
				c15.597-7.491,28.464-18.206,36.892-31.25l-5.861-3.779v6.971h33.836v-6.971h-6.971v6.866c0,1.833,0.74,3.63,2.04,4.933
				c1.303,1.299,3.098,2.04,4.933,2.04c1.836,0,3.63-0.74,4.933-2.044c1.299-1.299,2.04-3.093,2.04-4.929v-6.866h-6.979
				l-4.797,5.061L-1837.444,922.024z"/>
		</g>
	</g>
</g>
</svg>
