<?xml version="1.0" encoding="iso-8859-1"?>
<!-- Generator: Adobe Illustrator 23.0.1, SVG Export Plug-In . SVG Version: 6.00 Build 0)  -->
<svg version="1.1" id="Layer_1" xmlns="http://www.w3.org/2000/svg" xmlns:xlink="http://www.w3.org/1999/xlink" x="0px" y="0px"
	 viewBox="0 0 512 512" style="enable-background:new 0 0 512 512;" xml:space="preserve">
<g>
	<path style="fill:#B21F78;" d="M256.036,1C114.594,1,1,114.594,1,256.036C1,397.406,114.594,511,256.036,511
		C397.406,511,511,397.406,511,256.036C511,114.594,397.406,1,256.036,1L256.036,1z"/>
</g>
<g>
	<path style="fill:#00AEEF;" d="M-569.996,131.356c-141.443,0-255.036,113.594-255.036,255.037
		c0,141.37,113.594,254.964,255.036,254.964c141.37,0,254.964-113.594,254.964-254.964
		C-315.032,244.95-428.626,131.356-569.996,131.356L-569.996,131.356z M-422.787,306.355l-185.474,192.429
		c-2.319,2.332-4.637,3.521-8.157,3.521c-3.449,0-6.897-1.188-8.086-3.521l-90.382-97.338l-2.333-2.332
		c-2.318-2.319-3.506-5.825-3.506-8.085c0-2.318,1.188-5.824,3.506-8.158l16.199-16.242c4.637-4.579,11.591-4.579,16.242,0
		l1.188,1.188l63.723,68.374c2.318,2.318,5.781,2.318,8.099,0l155.352-161.075h1.145c4.636-4.637,11.591-4.637,16.242,0
		l16.242,16.184C-418.208,294.807-418.208,301.776-422.787,306.355L-422.787,306.355z"/>
</g>
<g>
	<g>
		<path style="fill:#FFFFFF;" d="M979.636,312.798V162.956c0-8.328,6.75-15.077,15.077-15.077h149.765
			c8.325,0,15.075,6.75,15.075,15.077v149.842c0,2.775-2.249,5.026-5.026,5.026H984.662
			C981.884,317.824,979.636,315.573,979.636,312.798L979.636,312.798z M1100.574,364.129c0,17.27-14,31.27-31.27,31.27
			s-31.27-14-31.27-31.27s14-31.27,31.27-31.27C1086.574,332.86,1100.574,346.86,1100.574,364.129L1100.574,364.129z
			 M1084.941,364.129c0-8.635-7.001-15.634-15.636-15.634s-15.636,6.999-15.636,15.634s7.001,15.636,15.636,15.636
			C1077.94,379.765,1084.941,372.764,1084.941,364.129L1084.941,364.129z M1042.373,332.86h-70.069
			c-2.775,0-5.026,2.251-5.026,5.026v15.247c0,2.775,2.251,5.025,5.026,5.025h56.164
			C1029.933,348.096,1035.013,339.21,1042.373,332.86L1042.373,332.86z M1264.182,364.129c0,17.27-14,31.27-31.27,31.27
			s-31.27-14-31.27-31.27s14-31.27,31.27-31.27C1250.182,332.86,1264.182,346.86,1264.182,364.129L1264.182,364.129z
			 M1248.549,364.129c0-8.635-7.001-15.634-15.636-15.634s-15.636,6.999-15.636,15.634s7.001,15.636,15.636,15.636
			C1241.547,379.765,1248.549,372.764,1248.549,364.129L1248.549,364.129z M1319.463,337.886v15.247
			c0,2.775-2.251,5.025-5.026,5.025h-40.687c-2.91-19.958-20.088-35.347-40.835-35.347c-20.754,0-37.931,15.391-40.842,35.347
			h-81.929c-1.468-10.06-6.545-18.948-13.907-25.298h77.685V189.114c0-5.55,4.501-10.052,10.051-10.052h47.443
			c13.359,0,25.846,6.636,33.321,17.708l30.586,45.3c4.486,6.645,6.883,14.48,6.883,22.497v68.292h12.231
			C1317.212,332.86,1319.463,335.11,1319.463,337.886L1319.463,337.886z M1268.481,243.232l-24.458-34.755
			c-0.942-1.337-2.474-2.132-4.11-2.132h-38.15c-2.775,0-5.026,2.248-5.026,5.026v34.755c0,2.775,2.248,5.025,5.026,5.025h62.609
			C1268.443,251.148,1270.824,246.561,1268.481,243.232L1268.481,243.232z"/>
	</g>
</g>
<g>
	<path style="fill:#F2692B;" d="M1109.695-109.505v-53.877c0-20.464-16.453-36.917-36.912-36.917l-25.5-4.006l-43.7-65.805
		c-0.617-0.517-1.135-1.752-1.747-2.265c-6.788-9.047-17.588-15.323-30.13-15.323h-82.875v-22.93
		c0-11.618-8.636-21.076-19.329-21.076h-223.54c-10.694,0-19.329,9.458-19.329,21.076v248.834c0,11.929,9.665,20.976,20.976,20.976
		h30.13C684.52-16.965,706.115,0,732.232,0s47.711-17.583,54.495-40.818h185.598C979.107-16.965,1000.701,0,1026.818,0
		c26.118,0,47.711-17.583,54.5-40.818h26.112c11.929,0,20.976-9.664,20.976-20.976v-26.63
		C1128.406-99.323,1119.877-108.37,1109.695-109.505L1109.695-109.505z M732.232-28.377c-15.935,0-28.382-13.059-28.382-28.377
		c0-15.323,13.059-28.382,28.382-28.382c15.936,0,28.377,13.059,28.377,28.382C760.608-41.435,748.168-28.377,732.232-28.377
		L732.232-28.377z M927.695-202.146c-1.436,0-2.671-1.13-2.671-2.676v-52.13c0-1.441,1.13-2.676,2.671-2.676h45.04
		c0.924,0,1.748,0.411,2.159,1.135l35.059,52.13c1.135,1.747-0.1,4.112-2.158,4.112h-80.1V-202.146z M1026.818-28.377
		c-15.935,0-28.377-13.059-28.377-28.377c0-15.323,13.058-28.382,28.377-28.382c15.941,0,28.382,13.059,28.382,28.382
		C1055.2-41.435,1042.141-28.377,1026.818-28.377L1026.818-28.377z"/>
</g>
<g>
	<path style="fill:#FFFFFF;" d="M1135.596,663.231c-29.228-97.748-132.529-153.491-230.275-124.263
		c-97.747,29.227-153.491,132.527-124.263,230.275c29.228,97.747,132.529,153.491,230.275,124.263
		C1109.078,864.279,1164.824,760.978,1135.596,663.231z M808.33,761.088C783.599,678.38,830.767,590.97,913.476,566.24
		c82.709-24.731,170.117,22.438,194.848,105.146c24.731,82.709-22.437,170.117-105.146,194.848
		C920.47,890.965,833.061,843.797,808.33,761.088z"/>
	<path style="fill:#FFFFFF;" d="M972.559,830.098v-16.034c24.528-6.337,42.698-28.652,42.698-55.129
		c0-28.699-26.708-42.818-50.274-55.272c-21.215-11.215-35.122-19.369-35.122-30.123c0-15.695,12.77-28.465,28.465-28.465
		c15.696,0,28.465,12.77,28.465,28.465c0,7.859,6.371,14.233,14.233,14.233c7.861,0,14.233-6.373,14.233-14.233
		c0-26.478-18.17-48.793-42.698-55.129v-16.035c0-7.859-6.371-14.233-14.233-14.233c-7.861,0-14.233,6.373-14.233,14.233v16.035
		c-24.527,6.336-42.698,28.65-42.698,55.129c0,28.71,26.715,42.83,50.285,55.289c21.209,11.211,35.11,19.363,35.11,30.107
		c0,15.696-12.769,28.465-28.465,28.465c-15.695,0-28.465-12.769-28.465-28.465c0-7.86-6.372-14.233-14.233-14.233
		s-14.233,6.373-14.233,14.233c0,26.479,18.171,48.793,42.698,55.129v16.034c0,7.86,6.372,14.233,14.233,14.233
		C966.188,844.331,972.559,837.958,972.559,830.098z"/>
	<polyline style="fill:#FFFFFF;" points="800.772,647.388 1102.364,810.136 1115.882,785.086 814.29,622.338 	"/>
</g>
<path style="fill:#FFFFFF;" d="M-201.973-210.365l-185.474,192.43c-2.319,2.332-4.637,3.521-8.157,3.521
	c-3.449,0-6.897-1.188-8.086-3.521l-90.382-97.338l-2.333-2.332c-2.318-2.319-3.506-5.825-3.506-8.085
	c0-2.318,1.188-5.824,3.506-8.158l16.199-16.242c4.637-4.579,11.591-4.579,16.242,0l1.188,1.188l63.723,68.374
	c2.318,2.318,5.781,2.318,8.099,0l155.352-161.075h1.145c4.636-4.637,11.591-4.637,16.242,0l16.242,16.184
	C-197.394-221.912-197.394-214.943-201.973-210.365L-201.973-210.365z"/>
<path style="fill:#FFFFFF;" d="M100.82-210.467c11.099,11.094,29.107,11.094,40.202,0l137.631-137.631
	c3.952-3.952,6.992-8.661,8.966-13.678c13.833,3.875,27.284,5.927,39.141,5.853c29.333-0.153,39.059-12.995,42.25-20.673
	c3.196-7.6,5.474-23.556-15.121-44.533l-0.682-0.683c-12.769-12.768-31.311-24.547-52.362-33.289
	c-3.878-1.595-7.753-3.039-11.552-4.405v-0.23c-0.23-16.869-13.829-30.472-30.702-30.702l-82.456-1.139
	c-10.942-0.152-21.429,4.104-29.106,11.855L9.324-342.094c-11.099,11.095-11.099,29.107,0,40.202L100.82-210.467z M206.913-442.332
	c9.195-9.195,24.09-9.195,33.285,0c5.47,5.473,7.674,12.994,6.613,20.064c9.043,6.382,19.834,12.312,31.385,17.099
	c4.104,1.67,8.056,3.191,11.855,4.482l-0.456-33.132c0.683,0.304,1.291,0.53,1.974,0.834c18.012,7.526,34.198,17.708,44.611,28.12
	l0.456,0.456c9.878,10.105,10.943,16.565,10.108,18.543c-2.587,6.156-30.324,11.625-72.426-5.93
	c-12.309-5.166-23.86-11.551-33.207-18.465c-0.305,0.379-0.687,0.757-0.991,1.14c-9.195,9.195-24.091,9.195-33.285,0
	C197.714-418.242,197.714-433.137,206.913-442.332L206.913-442.332z"/>
<g>
	<path style="fill:#FFFFFF;" d="M355.758,106.49l-5.461,5.458v-5.458h-26.912c-12.087,18.728-37.667,31.674-67.386,31.674
		c-29.653,0-55.232-12.946-67.389-31.675h-26.839v5.458l-5.475-5.458l-96.673,96.727l52.851,52.892l49.243-49.293v198.696h188.525
		V206.818l49.293,49.293l52.841-52.892L355.758,106.49z"/>
	<g>
		<g>
			<path style="fill:#FFFFFF;" d="M350.298,106.488h-5.545v5.461c0,1.458,0.589,2.887,1.623,3.924
				c1.036,1.033,2.464,1.623,3.924,1.623s2.887-0.589,3.924-1.626c1.033-1.033,1.623-2.46,1.623-3.92v-5.461
				c0-1.458-0.589-2.887-1.623-3.924c-1.036-1.033-2.464-1.623-3.924-1.623h-26.912c-1.892,0-3.636,0.948-4.662,2.539
				c-5.383,8.355-13.982,15.671-24.819,20.869c-10.827,5.2-23.85,8.27-37.905,8.27c-14.019,0-27.027-3.067-37.857-8.27
				c-10.836-5.197-19.461-12.52-24.879-20.883c-1.019-1.571-2.78-2.525-4.651-2.525h-26.842c-1.458,0-2.887,0.589-3.924,1.623
				c-1.033,1.036-1.623,2.464-1.623,3.924v5.461c0,1.458,0.589,2.887,1.623,3.924c1.036,1.033,2.464,1.623,3.924,1.623
				s2.887-0.589,3.924-1.626c1.033-1.033,1.623-2.46,1.623-3.92v-5.461c0-2.208-1.324-4.223-3.351-5.095
				c-2.031-0.873-4.406-0.45-6.01,1.066l-102.15,96.731c-1.09,1.036-1.709,2.447-1.731,3.95c-0.021,1.503,0.559,2.934,1.623,3.998
				l52.851,52.892c1.046,1.049,2.441,1.626,3.924,1.626s2.878-0.575,3.924-1.626l39.774-39.813v185.296
				c0,1.458,0.589,2.887,1.623,3.924c1.036,1.033,2.464,1.623,3.924,1.623h188.525c1.458,0,2.887-0.589,3.924-1.623
				c1.033-1.036,1.623-2.464,1.623-3.924V220.206l39.824,39.827c1.049,1.046,2.444,1.623,3.924,1.623
				c1.483,0,2.878-0.575,3.924-1.626l52.841-52.892c1.063-1.063,1.641-2.495,1.623-3.995c-0.021-1.503-0.639-2.918-1.731-3.95
				l-102.079-96.731c-1.604-1.519-3.978-1.943-6.007-1.071c-2.031,0.873-3.355,2.887-3.355,5.095L350.298,106.488l-3.815,4.025
				l97.946,92.813l-44.895,44.937l-45.369-45.369c-1.584-1.584-3.971-2.058-6.043-1.202c-2.072,0.859-3.423,2.881-3.423,5.126
				v193.15H167.262V206.817c0-2.245-1.351-4.266-3.423-5.126c-2.075-0.857-4.462-0.383-6.046,1.206l-45.318,45.366l-44.899-44.937
				l98.011-92.81l-3.815-4.029h-5.545v5.461c0,1.458,0.589,2.887,1.623,3.924c1.036,1.033,2.464,1.623,3.924,1.623
				s2.887-0.589,3.924-1.626c1.033-1.033,1.623-2.461,1.623-3.92v-5.461h-5.545v5.545h26.841v-5.545l-4.651,3.019
				c6.737,10.369,16.982,18.884,29.386,24.843c12.409,5.955,27.021,9.362,42.655,9.362c15.666,0,30.29-3.403,42.705-9.362
				c12.406-5.958,22.64-14.481,29.343-24.856l-4.662-3.006v5.545h26.912v-5.545h-5.545v5.461c0,1.458,0.589,2.887,1.623,3.924
				c1.036,1.033,2.464,1.623,3.924,1.623c1.46,0,2.887-0.589,3.924-1.626c1.033-1.033,1.623-2.46,1.623-3.92v-5.461H350.3
				l-3.815,4.025L350.298,106.488z"/>
		</g>
	</g>
</g>
</svg>
